<svg xmlns="http://www.w3.org/2000/svg" width="680" height="440" viewBox="0 0 680 440" font-family="-apple-system,Segoe UI,Roboto,sans-serif">
<rect x="0" y="0" width="680" height="440" rx="10" fill="#ffffff"/>
<text x="74" y="26" font-size="16" font-weight="700" fill="#111827">Held-out quality vs. on-device latency (BOOX SD662)</text>
<line x1="74" y1="374.0" x2="652" y2="374.0" stroke="#e5e7eb"/>
<text x="64" y="378.0" font-size="12" fill="#6b7280" text-anchor="end">80</text>
<line x1="74" y1="292.0" x2="652" y2="292.0" stroke="#e5e7eb"/>
<text x="64" y="296.0" font-size="12" fill="#6b7280" text-anchor="end">82</text>
<line x1="74" y1="210.0" x2="652" y2="210.0" stroke="#e5e7eb"/>
<text x="64" y="214.0" font-size="12" fill="#6b7280" text-anchor="end">84</text>
<line x1="74" y1="128.0" x2="652" y2="128.0" stroke="#e5e7eb"/>
<text x="64" y="132.0" font-size="12" fill="#6b7280" text-anchor="end">86</text>
<line x1="74" y1="46.0" x2="652" y2="46.0" stroke="#e5e7eb"/>
<text x="64" y="50.0" font-size="12" fill="#6b7280" text-anchor="end">88</text>
<line x1="74.0" y1="46" x2="74.0" y2="374" stroke="#f3f4f6"/>
<text x="74.0" y="394" font-size="12" fill="#6b7280" text-anchor="middle">8</text>
<line x1="170.3" y1="46" x2="170.3" y2="374" stroke="#f3f4f6"/>
<text x="170.3" y="394" font-size="12" fill="#6b7280" text-anchor="middle">10</text>
<line x1="266.7" y1="46" x2="266.7" y2="374" stroke="#f3f4f6"/>
<text x="266.7" y="394" font-size="12" fill="#6b7280" text-anchor="middle">12</text>
<line x1="363.0" y1="46" x2="363.0" y2="374" stroke="#f3f4f6"/>
<text x="363.0" y="394" font-size="12" fill="#6b7280" text-anchor="middle">14</text>
<line x1="459.3" y1="46" x2="459.3" y2="374" stroke="#f3f4f6"/>
<text x="459.3" y="394" font-size="12" fill="#6b7280" text-anchor="middle">16</text>
<line x1="555.7" y1="46" x2="555.7" y2="374" stroke="#f3f4f6"/>
<text x="555.7" y="394" font-size="12" fill="#6b7280" text-anchor="middle">18</text>
<line x1="652.0" y1="46" x2="652.0" y2="374" stroke="#f3f4f6"/>
<text x="652.0" y="394" font-size="12" fill="#6b7280" text-anchor="middle">20</text>
<text x="363" y="426" font-size="13" fill="#374151" text-anchor="middle">latency — ms / 6-syllable decode  (lower = faster)</text>
<text x="18" y="210" font-size="13" fill="#374151" text-anchor="middle" transform="rotate(-90 18 210)">homophone-hard %  (higher = better)</text>
<rect x="74" y="46" width="578" height="328" fill="none" stroke="#9ca3af"/>
<line x1="321.3" y1="288.0" x2="146.6" y2="218.0" stroke="#dc2626" stroke-width="1.5" stroke-dasharray="4 3" opacity="0.6"/>
<circle cx="125.1" cy="251.0" r="8" fill="#6b7280" stroke="#ffffff" stroke-width="2"/>
<text x="125.1" y="275.0" font-size="13" font-weight="700" fill="#6b7280" text-anchor="middle">4M int8</text>
<text x="125.1" y="290.0" font-size="11" fill="#6b7280" text-anchor="middle">免70 · 同83</text>
<circle cx="329.3" cy="292.0" r="8" fill="#2563eb" stroke="#ffffff" stroke-width="2"/>
<text x="329.3" y="316.0" font-size="13" font-weight="700" fill="#2563eb" text-anchor="middle">12M int8</text>
<text x="329.3" y="331.0" font-size="11" fill="#6b7280" text-anchor="middle">免72 · 同82</text>
<circle cx="579.8" cy="128.0" r="8" fill="#9333ea" stroke="#ffffff" stroke-width="2"/>
<text x="579.8" y="98.0" font-size="13" font-weight="700" fill="#9333ea" text-anchor="middle">25M ternary</text>
<text x="579.8" y="114.0" font-size="11" fill="#6b7280" text-anchor="middle">免76 · 同86</text>
<circle cx="136.6" cy="210.0" r="8" fill="#dc2626" stroke="#ffffff" stroke-width="2"/>
<text x="136.6" y="180.0" font-size="13" font-weight="700" fill="#dc2626" text-anchor="middle">12M ternary</text>
<text x="136.6" y="196.0" font-size="11" fill="#6b7280" text-anchor="middle">免84 · 同84</text>
<text x="74" y="42" font-size="11" fill="#9ca3af">all points measured on-device (int8: ORT; ternary: ggml/TQ2_0, 4 threads)</text>
</svg>